<svg xmlns="http://www.w3.org/2000/svg" width="900" height="485" viewBox="0 0 900 485">
<style>text{font-family:system-ui,sans-serif;font-size:14px}.title{font-size:20px;font-weight:600}.value{font-weight:600}</style>
<text class="title" x="20" y="30">Warm query throughput (median)</text>
<text x="20" y="80">point-lookup-warm / chronotail</text>
<rect x="210" y="60" width="620.0" height="28" rx="3" fill="#2563eb"/>
<text class="value" x="840.0" y="80">2682.41 k queries/s</text>
<text x="20" y="135">point-lookup-warm / nanots</text>
<rect x="210" y="115" width="331.7" height="28" rx="3" fill="#ea580c"/>
<text class="value" x="551.7" y="135">1435.20 k queries/s</text>
<text x="20" y="190">point-lookup-warm / sqlite</text>
<rect x="210" y="170" width="86.6" height="28" rx="3" fill="#16a34a"/>
<text class="value" x="306.6" y="190">374.53 k queries/s</text>
<text x="20" y="245">range-100-raw-warm / chronotail</text>
<rect x="210" y="225" width="401.5" height="28" rx="3" fill="#2563eb"/>
<text class="value" x="621.5" y="245">1737.20 k queries/s</text>
<text x="20" y="300">range-100-raw-warm / nanots</text>
<rect x="210" y="280" width="24.3" height="28" rx="3" fill="#ea580c"/>
<text class="value" x="244.3" y="300">105.26 k queries/s</text>
<text x="20" y="355">range-100-raw-warm / sqlite</text>
<rect x="210" y="335" width="22.5" height="28" rx="3" fill="#16a34a"/>
<text class="value" x="242.5" y="355">97.35 k queries/s</text>
<text x="20" y="410">range compressed / chronotail</text>
<rect x="210" y="390" width="76.1" height="28" rx="3" fill="#2563eb"/>
<text class="value" x="296.1" y="410">329.07 k queries/s</text>
</svg>